<svg version="1.1" xmlns="http://www.w3.org/2000/svg" aria-hidden="true">
  <defs>
    <symbol id="alipay" viewBox="0 0 28 32">
      <title>alipay</title>
      <path d="M23.609 2h-19.218c-2.428 0-4.391 1.963-4.391 4.391v19.218c0 2.428 1.963 4.391 4.391 4.391h19.218c2.407 0 4.36-1.942 4.391-4.35-2.872-1.601-6.912-3.771-10.725-5.527-2.004 2.748-5.259 5.063-9.289 5.063-4.412 0-5.858-2.831-6.065-4.773-0.248-2.438 0.93-5.094 6.22-5.094 2.211 0 4.959 0.641 7.946 1.56 1.033-1.881 1.653-3.771 1.653-3.771h-11.137v-1.044h5.755v-1.953h-6.84v-1.188h6.84v-3.151h3.183v3.151h6.84v1.188h-6.841v1.953h5.548s-0.951 2.914-2.397 5.682c3.058 1.044 6.251 2.253 9.289 3.296v-14.651c0.010-2.418-1.953-4.391-4.371-4.391zM2.955 20.184c0.062 1.261 0.641 3.358 4.371 3.358 3.254 0 5.786-2.48 7.367-4.556-2.789-1.168-5.28-1.963-6.84-1.963-4.216 0-4.959 2.066-4.897 3.161z"></path>
    </symbol>
    <symbol id="bilibili" viewBox="0 0 32 32">
      <title>bilibili</title>
      <path d="M29.936 28.617c-0.248 0-0.5 0.023-0.745-0.003-0.901-0.098-1.558 0.927-1.871 2.005-0.281 0.973-1.349 1.47-2.312 1.368-1.11-0.114-1.845-0.748-2.129-1.754-0.17-0.607-0.686-1.078-1.251-1.074-3.909 0.023-7.387 0.010-11.292 0-0.451 0-0.931 0.431-1.061 0.96-0.281 1.136-1.247 1.858-2.319 1.878-1.107 0.020-2.070-0.686-2.394-1.865-0.137-0.493-0.366-1.551-0.836-1.525-0.607 0.033-1.221 0.016-1.829 0.007-0.666-0.013-0.96-0.281-0.96-0.911 0.003-6.43 0.013-12.86 0.033-19.293 0.003-0.663 0.278-0.888 1.045-0.888 3.141-0.003 6.28-0.003 9.421-0.003 0.219 0 0.438 0 0.656 0 0.020-0.052 0.039-0.108 0.059-0.163-0.728-0.382-1.46-0.767-2.188-1.149-1.208-0.637-2.42-1.274-3.628-1.914-0.49-0.261-0.692-0.656-0.415-1.146 0.281-0.496 0.741-0.526 1.225-0.274 2.835 1.496 5.672 2.988 8.497 4.5 0.725 0.389 2.028 0.157 2.492-0.5 1.443-2.038 2.887-4.072 4.333-6.11 0.052-0.072 0.101-0.147 0.154-0.216 0.411-0.552 0.878-0.702 1.306-0.376 0.493 0.379 0.408 0.826 0.091 1.274-0.588 0.829-1.172 1.662-1.757 2.492-0.81 1.153-1.623 2.305-2.521 3.586 0.369 0 0.604 0 0.843 0 3.119 0 6.237 0 9.356 0 0.954 0 1.101 0.144 1.101 1.071 0.010 6.322 0.016 12.641 0.023 18.963-0.010 0.901-0.176 1.055-1.127 1.061zM25.246 30.508c0.5-0.033 0.735-1.355 0.888-1.855-0.65 0-1.221 0-1.887 0 0.186 0.549 0.444 1.891 0.999 1.855zM6.868 30.508c0.552 0.033 0.813-1.303 0.976-1.852-0.653 0-1.225 0-1.858 0 0.127 0.519 0.389 1.822 0.882 1.852zM29.155 9.396c-9.023 0-17.383 0-26.353 0 0 6.080 0 11.834 0 17.882 9.016 0 17.337 0 26.353 0 0-6.090 0-11.828 0-17.882zM4.686 13.050c0.003-0.872 0.421-1.724 1.3-1.724 6.694 0 12.856-0.049 19.551-0.046 0.892 0 1.734 0.908 1.737 1.77 0.010 4.157-0.007 7.357 0 11.514 0.003 0.888-0.803 1.77-1.737 1.77-3.337 0.003-6.221 0-9.555 0-3.337 0-6.218 0.003-9.555 0-0.97 0-1.737-0.813-1.737-1.77 0-4.137-0.010-7.377-0.003-11.514zM25.671 24.437c0-3.932-0.134-7.537-0.134-11.387-6.459 0-12.71 0-19.113 0 0 3.909-0.023 7.514-0.023 11.387 6.446 0 12.837 0 19.27 0zM11.845 15.342c0.056-0.026 0.121-0.020 0.349-0.052 0.134 0.131 0.467 0.31 0.503 0.532 0.039 0.261-0.101 0.718-0.304 0.82-1.238 0.627-2.508 1.192-3.781 1.747-0.389 0.17-0.813 0.042-0.914-0.372-0.065-0.271 0.052-0.787 0.248-0.885 1.28-0.643 2.596-1.205 3.899-1.79zM12.236 19.539c0.242-0.010 0.552 0.323 0.725 0.578 0.14 0.202 0.082 0.526 0.18 0.771 0.186 0.467 0.536 0.908 1.052 0.8 0.382-0.082 0.728-0.46 1.016-0.777 0.14-0.157 0.118-0.464 0.15-0.705 0.065-0.454 0.333-0.735 0.784-0.725 0.411 0.010 0.679 0.258 0.732 0.705 0.033 0.281 0.042 0.63 0.209 0.816 0.268 0.3 0.656 0.66 1.006 0.673 0.313 0.010 0.696-0.369 0.944-0.663 0.163-0.196 0.157-0.539 0.206-0.82 0.085-0.447 0.343-0.722 0.81-0.686 0.464 0.036 0.705 0.333 0.686 0.797-0.046 1.179-0.513 2.136-1.616 2.658-1.029 0.49-1.989 0.281-2.828-0.474-0.046-0.039-0.101-0.069-0.157-0.108-0.255 0.176-0.493 0.385-0.764 0.526-0.888 0.464-1.78 0.425-2.599-0.144-0.905-0.63-1.309-1.548-1.228-2.616 0.013-0.238 0.444-0.601 0.696-0.607zM18.8 15.287c0.219-0.382 0.607-0.487 0.97-0.281 1.44 0.82 2.861 1.669 4.275 2.528 0.17 0.101 0.248 0.349 0.307 0.438 0.016 0.699-0.562 1.081-1.094 0.78-1.424-0.803-2.825-1.649-4.222-2.495-0.372-0.225-0.447-0.598-0.235-0.97z"></path>
    </symbol>
    <symbol id="bitcoin" viewBox="0 0 32 32">
      <title>bitcoin</title>
      <path d="M31.5 16c0 8.56-6.94 15.5-15.5 15.5s-15.5-6.94-15.5-15.5 6.94-15.5 15.5-15.5 15.5 6.94 15.5 15.5zM22.647 13.792c0.309-2.062-1.262-3.171-3.409-3.911l0.697-2.794-1.701-0.424-0.678 2.72c-0.447-0.111-0.906-0.216-1.363-0.321l0.683-2.738-1.7-0.424-0.697 2.793c-0.37-0.084-0.733-0.168-1.086-0.255l0.002-0.009-2.346-0.586-0.452 1.816s1.262 0.289 1.235 0.307c0.689 0.172 0.813 0.628 0.793 0.989l-0.793 3.183c0.047 0.012 0.109 0.030 0.177 0.057-0.057-0.014-0.117-0.030-0.18-0.045l-1.112 4.459c-0.084 0.209-0.298 0.523-0.779 0.404 0.017 0.025-1.236-0.309-1.236-0.309l-0.844 1.947 2.213 0.552c0.412 0.103 0.815 0.211 1.213 0.313l-0.704 2.826 1.699 0.424 0.697-2.796c-0.004 0.017 0.45 0.139 0.906 0.255l0.449 0.097-0.695 2.783 1.701 0.424 0.704-2.82c2.9 0.549 5.081 0.327 5.999-2.295 0.74-2.112-0.037-3.33-1.563-4.124 1.111-0.256 1.948-0.987 2.172-2.497zM18.761 19.241c-0.526 2.112-4.082 0.97-5.235 0.684l0.934-3.744c1.153 0.288 4.85 0.857 4.301 3.060zM19.287 13.761c-0.48 1.921-3.439 0.945-4.4 0.706l0.847-3.395c0.96 0.239 4.052 0.686 3.553 2.69z"></path>
    </symbol>
    <symbol id="btc" viewBox="0 0 24 32">
      <title>btc</title>
      <path d="M19.388 15.165c1.733-0.886 2.836-2.462 2.58-5.081-0.335-3.584-3.279-4.786-7.178-5.121v-4.963h-3.033v4.825c-0.788 0-1.595 0.020-2.403 0.039v-4.865h-3.033v4.963c-1.115 0.034-2.414 0.017-6.086 0v3.23c2.395-0.042 3.651-0.196 3.939 1.339v13.589c-0.183 1.218-1.158 1.043-3.328 1.004l-0.61 3.604c5.53 0 6.086 0.020 6.086 0.020v4.25h3.033v-4.191c0.827 0.020 1.635 0.020 2.403 0.020v4.172h3.033v-4.25c5.081-0.276 8.478-1.556 8.931-6.342 0.354-3.84-1.457-5.554-4.333-6.243zM9.413 8.41c1.713 0 7.070-0.532 7.070 3.033 0 3.407-5.357 3.013-7.070 3.013v-6.046zM9.413 24.146v-6.657c2.048 0 8.32-0.571 8.32 3.328-0 3.762-6.272 3.328-8.32 3.328z"></path>
    </symbol>
    <symbol id="codepen" viewBox="0 0 32 32">
      <title>codepen</title>
      <path d="M31.393 9.982l-14.625-9.75c-0.499-0.307-1.032-0.31-1.536 0l-14.625 9.75c-0.375 0.25-0.607 0.696-0.607 1.143v9.75c0 0.446 0.232 0.893 0.607 1.143l14.625 9.751c0.499 0.307 1.032 0.31 1.536 0l14.625-9.751c0.375-0.25 0.607-0.696 0.607-1.143v-9.75c-0-0.446-0.232-0.893-0.607-1.143zM17.375 3.946l10.768 7.179-4.804 3.214-5.964-3.982v-6.411zM14.625 3.946v6.411l-5.964 3.982-4.804-3.214 10.768-7.179zM2.75 13.696l3.446 2.304-3.446 2.304v-4.607zM14.625 28.053l-10.768-7.179 4.804-3.214 5.964 3.982v6.411zM16 19.249l-4.857-3.25 4.857-3.25 4.857 3.25-4.857 3.25zM17.375 28.053v-6.411l5.964-3.982 4.804 3.214-10.768 7.179zM29.25 18.303l-3.446-2.304 3.446-2.304v4.607z"></path>
    </symbol>
    <symbol id="facebook" viewBox="0 0 28 32">
      <title>facebook</title>
      <path d="M28 3.544v24.906c0 0.856-0.694 1.544-1.544 1.544h-7.137v-10.837h3.637l0.544-4.225h-4.188v-2.7c0-1.225 0.337-2.056 2.094-2.056h2.238v-3.781c-0.387-0.050-1.712-0.169-3.262-0.169-3.225 0-5.438 1.969-5.438 5.588v3.119h-3.65v4.225h3.65v10.844h-13.4c-0.85 0-1.544-0.694-1.544-1.544v-24.913c0-0.85 0.694-1.544 1.544-1.544h24.906c0.856 0 1.55 0.694 1.55 1.544z"></path>
    </symbol>
    <symbol id="facebook-f" viewBox="0 0 17 32">
      <title>facebook-f</title>
      <path d="M4.794 32v-14.313h-4.794v-5.688h4.794v-4.481c0-4.869 2.975-7.519 7.319-7.519 2.081 0 3.869 0.156 4.387 0.225v5.088h-3.012c-2.363 0-2.819 1.125-2.819 2.769v3.919h5.331l-0.731 5.688h-4.6v14.313z"></path>
    </symbol>
    <symbol id="facebook-messenger" viewBox="0 0 28 32">
      <title>facebook-messenger</title>
      <path d="M14 2c-13.006 0-18.844 15.375-8.713 23.038v4.962l4.731-2.625c8.887 2.488 17.837-3.744 17.837-12.419 0.006-7.156-6.2-12.956-13.856-12.956zM15.463 19.381l-3.588-3.725-6.9 3.819 7.569-8.031 3.587 3.725 6.9-3.819-7.569 8.031z"></path>
    </symbol>
    <symbol id="facebook-square" viewBox="0 0 28 32">
      <title>facebook-square</title>
      <path d="M28 5v22c0 1.656-1.344 3-3 3h-5.331v-11.075h3.788l0.544-4.225h-4.331v-2.7c0-1.225 0.337-2.056 2.094-2.056h2.238v-3.775c-0.387-0.050-1.712-0.169-3.262-0.169-3.225 0-5.438 1.969-5.438 5.587v3.119h-3.8v4.225h3.806v11.069h-12.306c-1.656 0-3-1.344-3-3v-22c0-1.656 1.344-3 3-3h22c1.656 0 3 1.344 3 3z"></path>
    </symbol>
    <symbol id="free-code-camp" viewBox="0 0 36 32">
      <title>free-code-camp</title>
      <path d="M4.331 9.031c-2.563 4.281-2.275 10.188 0.063 14.188 1.388 2.387 3.106 3.275 3.106 4.156 0 0.425-0.375 0.813-0.8 0.813-1.219 0-6.2-4.719-6.2-12.363 0-6.969 4.875-11.625 6.069-11.625 0.375 0 0.931 0.3 0.931 0.694 0 0.794-1.769 1.787-3.169 4.138zM16.569 22.394c0.281 0.113 0.769 0.325 0.769-0.075 0-0.169-0.137-0.181-0.269-0.225-0.531-0.212-0.875-0.481-1.194-0.95-0.512-0.756-0.631-1.512-0.631-2.413 0-2.006 2.762-2.369 2.762-4.375 0-0.769-0.481-0.994-0.481-1.206 0-0.137 0.044-0.137 0.181-0.137 0.5 0 1.194 0.831 1.406 1.238 0.137 0.287 0.15 0.375 0.15 0.694 0 0.438-0.044 0.887-0.044 1.331 0 1.688 1.994 1.238 1.994 0.425 0-0.375-0.225-0.725-0.225-1.088 0-0.044 0-0.075 0.044-0.075 0.212 0 0.587 0.481 0.694 0.631 0.363 0.556 0.531 1.3 0.531 1.962 0 2.025-1.844 3.063-1.844 3.5 0 0.063 0.181 0.481 0.756 0.119 1.856-0.944 3.319-2.975 3.319-5.613 0-2.1-0.544-3.606-2.006-5.162-0.244-0.256-1.025-1.056-1.406-1.056-0.512 0 0.45 1.162 0.45 1.95 0 0.45-0.3 0.769-0.769 0.769-0.725 0-0.906-1.588-0.994-2.081-0.363-2.113-0.8-3.638-2.9-4.631-0.65-0.313-2.281-0.737-2.281-0.138 0 0.15 0.169 0.256 0.287 0.319 0.575 0.35 1.225 1.337 1.225 2.388 0 2.881-3.606 5.512-3.606 8.512-0.012 2.519 1.756 4.538 4.081 5.387zM29.4 4.188c-0.375 0-0.9 0.406-0.9 0.787 0 0.544 0.756 1.225 1.1 1.588 5.1 5.319 4.913 13.394 1.1 18.188-0.438 0.556-2.206 2.206-2.206 2.719 0 0.319 0.512 0.712 0.825 0.712 1.587 0 6.175-5.050 6.175-11.606 0.006-7.456-4.756-12.387-6.094-12.387zM26.756 24.381h-16.319c-0.588 0-0.969 0.469-0.969 1.025 0 0.531 0.438 0.969 0.969 0.969h16.319c0.587 0 0.744-0.469 0.744-1.025 0-0.531-0.219-0.969-0.744-0.969z"></path>
    </symbol>
    <symbol id="get-pocket" viewBox="0 0 28 32">
      <title>get-pocket</title>
      <path d="M25.475 4h-22.938c-1.381 0-2.538 1.156-2.538 2.537v8.45c0 7.794 6.231 14.013 14.012 14.013 7.75 0 13.987-6.219 13.987-14.012v-8.45c0-1.4-1.106-2.537-2.525-2.537zM15.35 20.781c-0.775 0.738-1.963 0.694-2.65 0-7.106-6.806-7.181-6.569-7.181-7.7 0-1.056 0.862-1.919 1.919-1.919 1.063 0 1.006 0.238 6.575 5.581 5.662-5.431 5.537-5.581 6.594-5.581s1.919 0.863 1.919 1.919c0 1.113-0.181 0.981-7.175 7.7z"></path>
    </symbol>
    <symbol id="github" viewBox="0 0 31 32">
      <title>github</title>
      <path d="M10.369 24.837c0 0.125-0.144 0.225-0.325 0.225-0.206 0.019-0.35-0.081-0.35-0.225 0-0.125 0.144-0.225 0.325-0.225 0.188-0.019 0.35 0.081 0.35 0.225zM8.425 24.556c-0.044 0.125 0.081 0.269 0.269 0.306 0.162 0.063 0.35 0 0.387-0.125s-0.081-0.269-0.269-0.325c-0.162-0.044-0.344 0.019-0.387 0.144zM11.188 24.45c-0.181 0.044-0.306 0.163-0.287 0.306 0.019 0.125 0.181 0.206 0.369 0.163 0.181-0.044 0.306-0.163 0.287-0.288-0.019-0.119-0.188-0.2-0.369-0.181zM15.3 0.5c-8.669 0-15.3 6.581-15.3 15.25 0 6.931 4.362 12.863 10.594 14.95 0.8 0.144 1.081-0.35 1.081-0.756 0-0.387-0.019-2.525-0.019-3.837 0 0-4.375 0.938-5.294-1.863 0 0-0.713-1.819-1.737-2.288 0 0-1.431-0.981 0.1-0.962 0 0 1.556 0.125 2.412 1.613 1.369 2.413 3.662 1.719 4.556 1.306 0.144-1 0.55-1.694 1-2.106-3.494-0.387-7.019-0.894-7.019-6.906 0-1.719 0.475-2.581 1.475-3.681-0.162-0.406-0.694-2.081 0.162-4.244 1.306-0.406 4.313 1.688 4.313 1.688 1.25-0.35 2.594-0.531 3.925-0.531s2.675 0.181 3.925 0.531c0 0 3.006-2.1 4.313-1.688 0.856 2.169 0.325 3.838 0.163 4.244 1 1.106 1.613 1.969 1.613 3.681 0 6.031-3.681 6.512-7.175 6.906 0.575 0.494 1.063 1.431 1.063 2.9 0 2.106-0.019 4.712-0.019 5.225 0 0.406 0.288 0.9 1.081 0.756 6.25-2.075 10.488-8.006 10.488-14.938 0-8.669-7.031-15.25-15.7-15.25zM6.075 22.056c-0.081 0.063-0.063 0.206 0.044 0.325 0.1 0.1 0.244 0.144 0.325 0.063 0.081-0.063 0.063-0.206-0.044-0.325-0.1-0.1-0.244-0.144-0.325-0.063zM5.4 21.55c-0.044 0.081 0.019 0.181 0.144 0.244 0.1 0.063 0.225 0.044 0.269-0.044 0.044-0.081-0.019-0.181-0.144-0.244-0.125-0.038-0.225-0.019-0.269 0.044zM7.425 23.775c-0.1 0.081-0.063 0.269 0.081 0.387 0.144 0.144 0.325 0.163 0.406 0.063 0.081-0.081 0.044-0.269-0.081-0.387-0.138-0.144-0.325-0.163-0.406-0.063zM6.713 22.856c-0.1 0.063-0.1 0.225 0 0.369s0.269 0.206 0.35 0.144c0.1-0.081 0.1-0.244 0-0.387-0.088-0.144-0.25-0.206-0.35-0.125z"></path>
    </symbol>
    <symbol id="github-alt" viewBox="0 0 30 32">
      <title>github-alt</title>
      <path d="M11.631 20.544c0 1.306-0.681 3.444-2.294 3.444s-2.294-2.137-2.294-3.444 0.681-3.444 2.294-3.444 2.294 2.137 2.294 3.444zM30 17.387c0 1.994-0.2 4.106-1.094 5.938-2.369 4.787-8.881 4.675-13.544 4.675-4.738 0-11.637 0.169-14.1-4.675-0.912-1.813-1.262-3.944-1.262-5.938 0-2.619 0.869-5.094 2.594-7.1-0.325-0.988-0.481-2.025-0.481-3.050 0-1.344 0.306-2.019 0.913-3.237 2.831 0 4.644 0.563 6.8 2.25 1.813-0.431 3.675-0.625 5.544-0.625 1.688 0 3.387 0.181 5.025 0.575 2.125-1.669 3.938-2.2 6.738-2.2 0.613 1.219 0.913 1.894 0.913 3.237 0 1.025-0.163 2.044-0.481 3.013 1.719 2.025 2.438 4.519 2.438 7.137zM25.981 20.544c0-2.744-1.669-5.162-4.594-5.162-1.181 0-2.313 0.213-3.5 0.375-0.931 0.144-1.863 0.2-2.819 0.2-0.95 0-1.881-0.056-2.819-0.2-1.169-0.162-2.313-0.375-3.5-0.375-2.925 0-4.594 2.419-4.594 5.162 0 5.488 5.025 6.331 9.4 6.331h3.013c4.394 0 9.413-0.837 9.413-6.331zM20.819 17.1c-1.613 0-2.294 2.137-2.294 3.444s0.681 3.444 2.294 3.444 2.294-2.137 2.294-3.444-0.681-3.444-2.294-3.444z"></path>
    </symbol>
    <symbol id="github-square" viewBox="0 0 28 32">
      <title>github-square</title>
      <path d="M25 2h-22c-1.656 0-3 1.344-3 3v22c0 1.656 1.344 3 3 3h22c1.656 0 3-1.344 3-3v-22c0-1.656-1.344-3-3-3zM17.331 25.981c-0.525 0.094-0.719-0.231-0.719-0.5 0-0.337 0.012-2.063 0.012-3.456 0-0.975-0.325-1.594-0.706-1.919 2.313-0.256 4.75-0.575 4.75-4.569 0-1.137-0.406-1.706-1.069-2.438 0.106-0.269 0.462-1.375-0.106-2.813-0.869-0.269-2.856 1.119-2.856 1.119-0.825-0.231-1.719-0.35-2.6-0.35s-1.775 0.119-2.6 0.35c0 0-1.988-1.387-2.856-1.119-0.569 1.431-0.219 2.537-0.106 2.813-0.662 0.731-0.975 1.3-0.975 2.438 0 3.975 2.331 4.313 4.644 4.569-0.3 0.269-0.569 0.731-0.662 1.394-0.594 0.269-2.112 0.731-3.019-0.869-0.569-0.988-1.594-1.069-1.594-1.069-1.013-0.012-0.069 0.637-0.069 0.637 0.675 0.313 1.15 1.512 1.15 1.512 0.606 1.856 3.506 1.231 3.506 1.231 0 0.869 0.012 2.281 0.012 2.538 0 0.269-0.188 0.594-0.719 0.5-4.125-1.381-7.013-5.306-7.013-9.894 0-5.738 4.388-10.094 10.125-10.094s10.387 4.356 10.387 10.094c0.006 4.587-2.794 8.519-6.919 9.894zM11.2 22.163c-0.119 0.025-0.231-0.025-0.244-0.106-0.012-0.094 0.069-0.175 0.188-0.2 0.119-0.012 0.231 0.038 0.244 0.119 0.019 0.081-0.063 0.163-0.188 0.188zM10.606 22.106c0 0.081-0.094 0.15-0.219 0.15-0.137 0.012-0.231-0.056-0.231-0.15 0-0.081 0.094-0.15 0.219-0.15 0.119-0.012 0.231 0.056 0.231 0.15zM9.75 22.038c-0.025 0.081-0.15 0.119-0.256 0.081-0.119-0.025-0.2-0.119-0.175-0.2s0.15-0.119 0.256-0.094c0.125 0.038 0.206 0.131 0.175 0.212zM8.981 21.7c-0.056 0.069-0.175 0.056-0.269-0.038-0.094-0.081-0.119-0.2-0.056-0.256 0.056-0.069 0.175-0.056 0.269 0.038 0.081 0.081 0.113 0.206 0.056 0.256zM8.412 21.131c-0.056 0.038-0.162 0-0.231-0.094s-0.069-0.2 0-0.244c0.069-0.056 0.175-0.012 0.231 0.081 0.069 0.094 0.069 0.206 0 0.256zM8.006 20.525c-0.056 0.056-0.15 0.025-0.219-0.038-0.069-0.081-0.081-0.175-0.025-0.219 0.056-0.056 0.15-0.025 0.219 0.038 0.069 0.081 0.081 0.175 0.025 0.219zM7.588 20.063c-0.025 0.056-0.106 0.069-0.175 0.025-0.081-0.038-0.119-0.106-0.094-0.163 0.025-0.038 0.094-0.056 0.175-0.025 0.081 0.044 0.119 0.113 0.094 0.163z"></path>
    </symbol>
    <symbol id="gitlab" viewBox="0 0 32 32">
      <title>gitlab</title>
      <path d="M1.861 12.483l14.139 18.374-15.495-11.501c-0.428-0.321-0.607-0.875-0.446-1.375l1.803-5.498zM6.574 1.558c-0.196-0.553-0.982-0.553-1.178 0l-3.535 10.925h8.248l-3.535-10.925zM10.109 12.483l5.891 18.374 5.891-18.374h-11.782zM31.942 17.982l-1.803-5.498-14.139 18.374 15.495-11.501c0.428-0.321 0.607-0.875 0.446-1.375zM26.604 1.558c-0.196-0.553-0.982-0.553-1.178 0l-3.535 10.925h8.248l-3.535-10.925z"></path>
    </symbol>
    <symbol id="google" viewBox="0 0 31 32">
      <title>google</title>
      <path d="M30.5 16.363c0 8.844-6.056 15.137-15 15.137-8.575 0-15.5-6.925-15.5-15.5s6.925-15.5 15.5-15.5c4.175 0 7.688 1.531 10.394 4.056l-4.219 4.056c-5.519-5.325-15.781-1.325-15.781 7.387 0 5.406 4.319 9.788 9.606 9.788 6.137 0 8.438-4.4 8.8-6.681h-8.8v-5.331h14.756c0.144 0.794 0.244 1.556 0.244 2.587z"></path>
    </symbol>
    <symbol id="google-drive" viewBox="0 0 32 32">
      <title>google-drive</title>
      <path d="M21.188 19.681l-10.225-17.681h10.075l10.225 17.681h-10.075zM12.594 21.156l-5.037 8.844h19.406l5.038-8.844h-19.406zM9.631 4.213l-9.631 16.944 5.037 8.844 9.775-16.95-5.181-8.838z"></path>
    </symbol>
    <symbol id="google-play" viewBox="0 0 32 32">
      <title>google-play</title>
      <path d="M20.331 14.644l-13.794-13.831 17.55 10.075-3.756 3.756zM2.938 0c-0.813 0.425-1.356 1.2-1.356 2.206v27.581c0 1.006 0.544 1.781 1.356 2.206l16.038-16-16.038-15.994zM29.512 14.1l-3.681-2.131-4.106 4.031 4.106 4.031 3.756-2.131c1.125-0.894 1.125-2.906-0.075-3.8zM6.537 31.188l17.55-10.075-3.756-3.756-13.794 13.831z"></path>
    </symbol>
    <symbol id="google-plus" viewBox="0 0 31 32">
      <title>google-plus</title>
      <path d="M15.5 0.5c-8.556 0-15.5 6.944-15.5 15.5s6.944 15.5 15.5 15.5 15.5-6.944 15.5-15.5-6.944-15.5-15.5-15.5zM11.081 23.75c-4.3 0-7.75-3.469-7.75-7.75s3.45-7.75 7.75-7.75c1.956 0 3.756 0.688 5.188 2.019l-2.1 2.037c-0.825-0.806-1.956-1.194-3.088-1.194-2.681 0-4.825 2.219-4.825 4.881s2.138 4.881 4.825 4.881c2.037 0 4.056-1.194 4.381-3.331h-4.381v-2.662h7.306c0.081 0.425 0.119 0.85 0.119 1.294 0 4.425-2.969 7.575-7.425 7.575zM25.469 17.113v2.219h-2.219v-2.219h-2.219v-2.219h2.219v-2.219h2.219v2.219h2.2v2.219h-2.2z"></path>
    </symbol>
    <symbol id="google-plus-g" viewBox="0 0 40 32">
      <title>google-plus-g</title>
      <path d="M24.129 14.281c0.115 0.606 0.196 1.211 0.196 1.997 0 6.86-4.6 11.722-11.525 11.722-6.63 0-12-5.37-12-12s5.37-12 12-12c3.241 0 5.943 1.179 8.038 3.143l-3.258 3.127c-0.884-0.851-2.439-1.85-4.78-1.85-4.093 0-7.433 3.389-7.433 7.58s3.34 7.58 7.433 7.58c4.748 0 6.532-3.422 6.81-5.173h-6.81v-4.126h11.329zM35.717 14.683v-3.483h-3.5v3.483h-3.483v3.5h3.483v3.483h3.5v-3.483h3.483v-3.5h-3.483z"></path>
    </symbol>
    <symbol id="google-plus-square" viewBox="0 0 28 32">
      <title>google-plus-square</title>
      <path d="M25 2h-22c-1.656 0-3 1.344-3 3v22c0 1.656 1.344 3 3 3h22c1.656 0 3-1.344 3-3v-22c0-1.656-1.344-3-3-3zM10.25 22.25c-3.456 0-6.25-2.794-6.25-6.25s2.794-6.25 6.25-6.25c1.688 0 3.094 0.613 4.188 1.637l-1.694 1.631c-0.463-0.444-1.269-0.963-2.487-0.963-2.131 0-3.869 1.762-3.869 3.95 0 2.181 1.738 3.95 3.869 3.95 2.475 0 3.4-1.781 3.55-2.694h-3.556v-2.15h5.9c0.063 0.313 0.1 0.631 0.1 1.037 0 3.569-2.394 6.1-6 6.1zM24 17.137h-1.813v1.813h-1.825v-1.813h-1.813v-1.825h1.813v-1.813h1.825v1.813h1.813v1.825z"></path>
    </symbol>
    <symbol id="google-wallet" viewBox="0 0 28 32">
      <title>google-wallet</title>
      <path d="M9.8 7.925c2.35 3.788 4.012 7.069 5.269 10.156-0.519 2.113-1.175 4.156-1.956 6.144-0.825-3.269-1.656-6.331-3.5-9.281 0.406-2.275 0.144-4.6 0.188-7.019zM6.831 12.5h-5.825c-0.406 0-0.656 0.469-0.406 0.794 2.638 3.394 4.481 7.363 5.731 11.706h6.469c-1.012-4.356-2.419-8.356-5.156-12.094-0.188-0.25-0.5-0.406-0.813-0.406zM9.819 7c4.281 6.75 8.125 14.656 8.637 23h7.106c-0.75-8.625-4.275-16.563-8.95-23h-6.794zM25.556 2.719c-0.113-0.425-0.512-0.719-0.95-0.719h-5.519c-0.331 0-0.563 0.313-0.488 0.644 0.825 2.906 1.394 5.969 1.656 9.125 3.012 5.387 4.981 11.144 5.662 16.925 0.988-3.781 1.581-8.344 1.581-12.688 0-4.6-0.756-9.069-1.944-13.287z"></path>
    </symbol>
    <symbol id="instagram" viewBox="0 0 28 32">
      <title>instagram</title>
      <path d="M14.006 8.813c-3.975 0-7.181 3.206-7.181 7.181s3.206 7.181 7.181 7.181 7.181-3.206 7.181-7.181-3.206-7.181-7.181-7.181zM14.006 20.663c-2.569 0-4.669-2.094-4.669-4.669s2.094-4.669 4.669-4.669 4.669 2.094 4.669 4.669-2.1 4.669-4.669 4.669zM23.156 8.519c0 0.931-0.75 1.675-1.675 1.675-0.931 0-1.675-0.75-1.675-1.675s0.75-1.675 1.675-1.675 1.675 0.75 1.675 1.675zM27.913 10.219c-0.106-2.244-0.619-4.231-2.262-5.869-1.637-1.638-3.625-2.15-5.869-2.263-2.313-0.131-9.244-0.131-11.556 0-2.237 0.106-4.225 0.619-5.869 2.256s-2.15 3.625-2.263 5.869c-0.131 2.313-0.131 9.244 0 11.556 0.106 2.244 0.619 4.231 2.263 5.869s3.625 2.15 5.869 2.262c2.313 0.131 9.244 0.131 11.556 0 2.244-0.106 4.231-0.619 5.869-2.262 1.637-1.637 2.15-3.625 2.262-5.869 0.131-2.313 0.131-9.238 0-11.55zM24.925 24.25c-0.488 1.225-1.431 2.169-2.663 2.663-1.844 0.731-6.219 0.563-8.256 0.563s-6.419 0.163-8.256-0.563c-1.225-0.488-2.169-1.431-2.663-2.663-0.731-1.844-0.563-6.219-0.563-8.256s-0.163-6.419 0.563-8.256c0.487-1.225 1.431-2.169 2.663-2.662 1.844-0.731 6.219-0.563 8.256-0.563s6.419-0.162 8.256 0.563c1.225 0.487 2.169 1.431 2.663 2.662 0.731 1.844 0.563 6.219 0.563 8.256s0.169 6.419-0.563 8.256z"></path>
    </symbol>
    <symbol id="jsfiddle" viewBox="0 0 36 32">
      <title>jsfiddle</title>
      <path d="M31.915 14.841c-0.295-0.164-0.354-0.359-0.399-0.674-0.147-1.030-0.221-2.101-0.569-3.068-2.243-6.247-9.624-8.962-15.428-5.728-1.711 0.953-3.061 2.273-4.093 3.994-0.199-0.094-0.341-0.169-0.489-0.23-1.881-0.776-3.691-0.633-5.333 0.573-1.596 1.171-2.276 2.784-2.042 4.775 0.022 0.189-0.123 0.476-0.282 0.597-2.482 1.874-3.502 4.879-2.619 7.788 0.864 2.848 3.595 4.987 6.601 5.090 1.893 0.064 3.79 0.034 5.685 0.034 5.253-0.001 10.506 0.033 15.758-0.030 3.291-0.040 6.007-2.305 6.763-5.456 0.721-3.005-0.697-6.081-3.552-7.665zM33.234 24.646c-1.139 1.402-2.646 2.203-4.455 2.228-3.555 0.049-7.11 0.014-10.666 0.014 0 0.044-10.189 0.010-10.233 0.010-2.741-0.021-4.796-1.235-5.948-3.75-1.181-2.578-0.25-5.678 2.137-7.257 0.574-0.38 0.782-0.723 0.631-1.446-0.343-1.648 0.278-2.997 1.651-3.936 1.437-0.983 2.964-1.009 4.502-0.193 0.642 0.341 0.913 0.723 1.387-0.158 0.889-1.65 2.16-2.92 3.792-3.831 6.091-3.398 14.273 0.473 14.39 8.294 0.008 0.509 0.151 0.777 0.616 0.993 3.598 1.677 4.654 6.008 2.196 9.031zM27.747 19.615c-0.366 1.947-2.164 3.444-4.167 3.443-1.060-0-2.004-0.409-2.755-1.107-1.731-1.607-4.446-4.686-5.996-5.837-1.254-0.931-2.624-0.771-3.767 0.236-3.125 2.754 0.991 7.611 4.191 4.824 0.284-0.247 0.49-0.596 0.796-0.803 0.512-0.344 1.298-0.055 0.823 0.664-1.085 1.643-3.083 2.387-4.929 1.831-1.806-0.544-3.053-2.248-3.039-4.386 0.077-1.405 0.773-2.691 2.213-3.498 1.411-0.79 2.898-0.822 4.187 0.155 3.174 2.405 4.724 5.109 6.706 6.328 1.535 0.944 3.391 0.46 4.301-1.094 1.802-3.076-2.162-6.564-4.929-3.966-0.249 0.234-0.432 0.558-0.713 0.733-0.686 0.426-1.083-0.257-0.801-0.647 1.294-1.785 3.154-2.527 5.204-1.763 1.964 0.732 3.069 2.773 2.672 4.887z"></path>
    </symbol>
    <symbol id="linkedin" viewBox="0 0 28 32">
      <title>linkedin</title>
      <path d="M26 2h-24.006c-1.1 0-1.994 0.906-1.994 2.019v23.962c0 1.113 0.894 2.019 1.994 2.019h24.006c1.1 0 2-0.906 2-2.019v-23.962c0-1.112-0.9-2.019-2-2.019zM8.463 26h-4.15v-13.363h4.156v13.363zM6.388 10.813c-1.331 0-2.406-1.081-2.406-2.406s1.075-2.406 2.406-2.406c1.325 0 2.406 1.081 2.406 2.406 0 1.331-1.075 2.406-2.406 2.406zM24.019 26h-4.15v-6.5c0-1.55-0.031-3.544-2.156-3.544-2.162 0-2.494 1.688-2.494 3.431v6.613h-4.15v-13.363h3.981v1.825h0.056c0.556-1.050 1.912-2.156 3.931-2.156 4.2 0 4.981 2.769 4.981 6.369v7.325z"></path>
    </symbol>
    <symbol id="linkedin-in" viewBox="0 0 28 32">
      <title>linkedin-in</title>
      <path d="M6.269 28h-5.806v-18.694h5.806v18.694zM3.362 6.756c-1.856 0-3.362-1.537-3.362-3.394s1.506-3.362 3.362-3.362 3.362 1.506 3.362 3.362-1.506 3.394-3.362 3.394zM28 28h-5.794v-9.1c0-2.169-0.044-4.95-3.019-4.95-3.019 0-3.481 2.356-3.481 4.794v9.256h-5.8v-18.694h5.569v2.55h0.081c0.775-1.469 2.669-3.019 5.494-3.019 5.875 0 6.956 3.869 6.956 8.894v10.269h-0.006z"></path>
    </symbol>
    <symbol id="medium" viewBox="0 0 28 32">
      <title>medium</title>
      <path d="M0 2v28h28v-28h-28zM23.262 8.631l-1.5 1.438c-0.131 0.1-0.194 0.262-0.169 0.419v10.581c-0.025 0.163 0.038 0.325 0.169 0.419l1.469 1.438v0.319h-7.375v-0.306l1.519-1.475c0.15-0.15 0.15-0.194 0.15-0.419v-8.556l-4.225 10.725h-0.569l-4.919-10.725v7.188c-0.044 0.3 0.063 0.606 0.275 0.825l1.975 2.394v0.319h-5.612v-0.319l1.975-2.394c0.213-0.219 0.306-0.525 0.256-0.825v-8.313c0.025-0.231-0.063-0.456-0.237-0.613l-1.756-2.119v-0.319h5.456l4.213 9.25 3.706-9.244h5.2v0.313z"></path>
    </symbol>
    <symbol id="medium-m" viewBox="0 0 32 32">
      <title>medium-m</title>
      <path d="M4.469 8.894c0.037-0.369-0.106-0.738-0.381-0.987l-2.819-3.4v-0.506h8.762l6.775 14.856 5.956-14.856h8.356v0.506l-2.413 2.313c-0.206 0.156-0.313 0.419-0.269 0.675v17c-0.044 0.256 0.063 0.519 0.269 0.675l2.356 2.313v0.506h-11.856v-0.506l2.444-2.369c0.238-0.238 0.238-0.313 0.238-0.675v-13.738l-6.794 17.244h-0.919l-7.9-17.244v11.556c-0.069 0.488 0.094 0.975 0.438 1.325l3.175 3.85v0.506h-9v-0.5l3.175-3.856c0.338-0.35 0.494-0.844 0.406-1.325v-13.363z"></path>
    </symbol>
    <symbol id="npm" viewBox="0 0 36 32">
      <title>npm</title>
      <path d="M18 18h-2v-4h2v4zM36 10v12h-18v2h-8v-2h-10v-12h36zM10 12h-8v8h4v-6h2v6h2v-8zM20 12h-8v10h4v-2h4v-8zM34 12h-12v8h4v-6h2v6h2v-6h2v6h2v-8z"></path>
    </symbol>
    <symbol id="pinterest" viewBox="0 0 31 32">
      <title>pinterest</title>
      <path d="M31 16c0 8.563-6.938 15.5-15.5 15.5-1.6 0-3.137-0.244-4.588-0.694 0.631-1.031 1.575-2.719 1.925-4.063 0.188-0.725 0.963-3.688 0.963-3.688 0.506 0.962 1.981 1.781 3.55 1.781 4.675 0 8.044-4.3 8.044-9.644 0-5.119-4.181-8.95-9.556-8.95-6.688 0-10.244 4.488-10.244 9.381 0 2.275 1.213 5.106 3.144 6.006 0.294 0.137 0.45 0.075 0.519-0.206 0.050-0.212 0.313-1.269 0.431-1.756 0.037-0.156 0.019-0.294-0.106-0.444-0.631-0.781-1.144-2.206-1.144-3.537 0-3.419 2.588-6.725 7-6.725 3.806 0 6.475 2.594 6.475 6.306 0 4.194-2.119 7.1-4.875 7.1-1.519 0-2.662-1.256-2.294-2.8 0.438-1.844 1.281-3.831 1.281-5.162 0-1.188-0.637-2.181-1.963-2.181-1.556 0-2.806 1.606-2.806 3.762 0 1.375 0.463 2.3 0.463 2.3s-1.531 6.488-1.813 7.7c-0.313 1.337-0.188 3.225-0.056 4.45-5.763-2.256-9.85-7.869-9.85-14.438 0-8.563 6.938-15.5 15.5-15.5s15.5 6.938 15.5 15.5z"></path>
    </symbol>
    <symbol id="pinterest-p" viewBox="0 0 24 32">
      <title>pinterest-p</title>
      <path d="M12.75 0.406c-6.412 0-12.75 4.275-12.75 11.194 0 4.4 2.475 6.9 3.975 6.9 0.619 0 0.975-1.725 0.975-2.212 0-0.581-1.481-1.819-1.481-4.238 0-5.025 3.825-8.588 8.775-8.588 4.256 0 7.406 2.419 7.406 6.862 0 3.319-1.331 9.544-5.644 9.544-1.556 0-2.887-1.125-2.887-2.738 0-2.363 1.65-4.65 1.65-7.088 0-4.138-5.869-3.388-5.869 1.613 0 1.050 0.131 2.213 0.6 3.169-0.862 3.712-2.625 9.244-2.625 13.069 0 1.181 0.169 2.344 0.281 3.525 0.213 0.238 0.106 0.212 0.431 0.094 3.15-4.313 3.037-5.156 4.463-10.8 0.769 1.462 2.756 2.25 4.331 2.25 6.637 0 9.619-6.469 9.619-12.3 0-6.206-5.363-10.256-11.25-10.256z"></path>
    </symbol>
    <symbol id="pinterest-square" viewBox="0 0 28 32">
      <title>pinterest-square</title>
      <path d="M28 5v22c0 1.656-1.344 3-3 3h-15.35c0.613-1.025 1.4-2.5 1.713-3.706 0.188-0.719 0.956-3.65 0.956-3.65 0.5 0.956 1.963 1.762 3.519 1.762 4.631 0 7.963-4.256 7.963-9.544 0-5.069-4.137-8.863-9.463-8.863-6.625 0-10.137 4.444-10.137 9.287 0 2.25 1.2 5.050 3.112 5.944 0.294 0.137 0.444 0.075 0.513-0.206 0.050-0.212 0.313-1.256 0.425-1.738 0.037-0.156 0.019-0.288-0.106-0.438-0.631-0.769-1.144-2.181-1.144-3.5 0-3.387 2.563-6.662 6.931-6.662 3.769 0 6.413 2.569 6.413 6.244 0 4.15-2.094 7.025-4.825 7.025-1.506 0-2.631-1.244-2.275-2.775 0.431-1.825 1.269-3.794 1.269-5.113 0-3.313-4.719-2.856-4.719 1.563 0 1.356 0.456 2.281 0.456 2.281-1.963 8.3-2.256 8.406-1.85 12.037l0.137 0.050h-5.537c-1.656 0-3-1.344-3-3v-22c0-1.656 1.344-3 3-3h22c1.656 0 3 1.344 3 3z"></path>
    </symbol>
    <symbol id="qq" viewBox="0 0 28 32">
      <title>qq</title>
      <path d="M27.11 26.278c-0.72 0.087-2.804-3.296-2.804-3.296 0 1.959-1.009 4.515-3.191 6.362 1.053 0.325 3.428 1.198 2.863 2.151-0.457 0.771-7.844 0.493-9.977 0.252-2.133 0.24-9.52 0.519-9.977-0.252-0.565-0.953 1.807-1.826 2.861-2.151-2.183-1.846-3.191-4.403-3.191-6.362 0 0-2.083 3.383-2.804 3.296-0.336-0.041-0.776-1.853 0.584-6.232 0.641-2.064 1.375-3.78 2.509-6.611-0.191-7.306 2.828-13.435 10.016-13.435 7.109 0 10.197 6.008 10.017 13.435 1.132 2.826 1.869 4.553 2.509 6.611 1.361 4.379 0.92 6.191 0.584 6.232z"></path>
    </symbol>
    <symbol id="qzone" viewBox="0 0 32 32">
      <title>qzone</title>
      <path d="M31.98 12.269c-0.043-0.132-0.169-0.297-0.445-0.344-0.276-0.048-9.801-1.875-9.801-1.875s-0.14-0.029-0.264-0.093c-0.123-0.063-0.169-0.223-0.169-0.223s-4.704-8.46-4.835-8.708c-0.132-0.249-0.327-0.317-0.465-0.317s-0.335 0.068-0.465 0.317c-0.131 0.248-4.835 8.708-4.835 8.708s-0.047 0.16-0.171 0.223c-0.123 0.063-0.263 0.093-0.263 0.093s-9.525 1.827-9.803 1.873c-0.277 0.048-0.403 0.213-0.444 0.344-0.011 0.045-0.018 0.097-0.018 0.15 0 0.175 0.071 0.333 0.185 0.448l-0-0 7.149 7.32s0.096 0.107 0.159 0.229c0.021 0.139 0.007 0.28 0.007 0.28s-1.585 9.656-1.627 9.933 0.1 0.492 0.212 0.573c0.111 0.083 0.311 0.141 0.561 0.017 0.252-0.124 9.083-4.348 9.083-4.348s0.131-0.059 0.268-0.081c0.137-0.023 0.268 0.081 0.268 0.081s8.831 4.224 9.083 4.348c0.251 0.125 0.451 0.065 0.561-0.017 0.135-0.114 0.22-0.283 0.22-0.473 0-0.036-0.003-0.070-0.009-0.104l0 0.004c-0.028-0.187-1.24-7.569-1.24-7.569 1.168-0.72 1.9-1.385 2.465-2.329-3.459 1.292-8.008 2.289-12.553 2.488-1.22 0.055-3.213 0.129-4.631-0.020-0.904-0.095-1.56-0.192-1.657-0.584-0.071-0.287 0.072-0.613 0.727-1.108-7.432 5.38-6.191 4.438-4.949 3.496l8.764-6.37c1.713-1.291 4.745-3.293 4.745-3.641 0-0.38-2.859-1.041-5.383-1.041-2.593 0-3.033 0.176-3.748 0.224-0.651 0.045-1.025 0.007-1.072-0.184-0.080-0.331 0.244-0.519 0.784-0.757 0.945-0.419 2.48-0.792 2.645-0.835 0.259-0.069 4.109-1.073 7.491-0.713 1.757 0.187 4.325 0.891 4.325 1.701 0 0.456-2.295 1.992-4.3 3.463-1.532 1.124-2.956 2.081-2.956 2.251 0 0.456 4.711 1.655 8.919 1.347l0.004-0.029c0.064-0.123 0.159-0.229 0.159-0.229l7.149-7.32c0.115-0.115 0.187-0.274 0.187-0.45 0-0.053-0.006-0.104-0.018-0.153l0.001 0.004z"></path>
    </symbol>
    <symbol id="readme" viewBox="0 0 36 32">
      <title>readme</title>
      <path d="M33.019 2.906h-8.738c-3.006 0-5.619 2.081-6.275 5.019-0.663-2.938-3.269-5.019-6.275-5.019h-8.731c-1.656 0-3 1.344-3 3v15.363c0 1.656 1.344 3 3 3h5.606c6.387 0 8.294 1.525 9.206 4.688 0.044 0.175 0.325 0.175 0.375 0 0.919-3.163 2.825-4.688 9.206-4.688h5.606c1.656 0 3-1.344 3-3v-15.356c0-1.65-1.331-2.994-2.981-3.006zM15.125 19.494c0 0.119-0.094 0.219-0.219 0.219h-10.019c-0.119 0-0.219-0.094-0.219-0.219v-1.431c0-0.119 0.094-0.219 0.219-0.219h10.025c0.119 0 0.219 0.094 0.219 0.219v1.431zM15.125 15.688c0 0.119-0.094 0.219-0.219 0.219h-10.019c-0.119 0-0.219-0.094-0.219-0.219v-1.431c0-0.119 0.094-0.219 0.219-0.219h10.025c0.119 0 0.219 0.094 0.219 0.219v1.431zM15.125 11.881c0 0.119-0.094 0.219-0.219 0.219h-10.019c-0.119 0-0.219-0.094-0.219-0.219v-1.431c0-0.119 0.094-0.219 0.219-0.219h10.025c0.119 0 0.219 0.094 0.219 0.219v1.431zM31.331 19.488c0 0.119-0.094 0.219-0.219 0.219h-10.019c-0.119 0-0.219-0.094-0.219-0.219v-1.431c0-0.119 0.094-0.219 0.219-0.219h10.025c0.119 0 0.219 0.094 0.219 0.219v1.431zM31.331 15.681c0 0.119-0.094 0.219-0.219 0.219h-10.019c-0.119 0-0.219-0.094-0.219-0.219v-1.431c0-0.119 0.094-0.219 0.219-0.219h10.025c0.119 0 0.219 0.094 0.219 0.219v1.431zM31.331 11.875c0 0.119-0.094 0.219-0.219 0.219h-10.019c-0.119 0-0.219-0.094-0.219-0.219v-1.425c0-0.119 0.094-0.219 0.219-0.219h10.025c0.119 0 0.219 0.094 0.219 0.219v1.425z"></path>
    </symbol>
    <symbol id="renren" viewBox="0 0 32 32">
      <title>renren</title>
      <path d="M13.375 10.569c0 6.9-3.813 12.838-9.225 15.463-2.275-2.706-3.65-6.175-3.65-9.994 0-7.669 5.569-14.025 12.875-15.256v9.787zM15.938 31.5c-2.681 0-5.206-0.688-7.406-1.9 3.575-2.256 6.463-5.669 7.406-9.663 0.969 3.994 3.856 7.406 7.425 9.669-2.194 1.206-4.719 1.894-7.425 1.894zM27.85 26.031c-5.413-2.625-9.225-8.556-9.225-15.463v-9.787c7.306 1.231 12.875 7.588 12.875 15.256 0 3.819-1.375 7.288-3.65 9.994z"></path>
    </symbol>
    <symbol id="skype" viewBox="0 0 28 32">
      <title>skype</title>
      <path d="M26.544 18.738c0.181-0.875 0.294-1.806 0.294-2.738 0-7.094-5.744-12.831-12.831-12.831-0.931 0-1.856 0.106-2.738 0.294-1.188-0.919-2.662-1.462-4.269-1.462-3.862 0-7 3.137-7 7 0 1.606 0.544 3.081 1.456 4.262-0.181 0.875-0.294 1.806-0.294 2.738 0 7.094 5.744 12.831 12.831 12.831 0.931 0 1.856-0.106 2.738-0.294 1.188 0.913 2.663 1.456 4.262 1.456 3.863 0 7-3.137 7-7 0.006-1.6-0.538-3.075-1.45-4.256zM14.381 24.456c-4.1 0-7.531-1.825-7.531-4.063 0-1 0.563-1.913 1.844-1.913 1.95 0 2.131 2.806 5.506 2.806 1.606 0 2.644-0.712 2.644-1.644 0-1.169-1-1.35-2.625-1.75-3.906-0.962-7.362-1.375-7.362-5.45 0-3.7 3.663-5.069 6.819-5.069 3.444 0 6.925 1.369 6.925 3.463 0 1.056-0.712 1.988-1.894 1.988-1.769 0-1.825-2.094-4.688-2.094-1.606 0-2.625 0.438-2.625 1.406 0 1.238 1.3 1.363 4.319 2.063 2.588 0.581 5.669 1.675 5.669 4.85 0 3.694-3.569 5.406-7 5.406z"></path>
    </symbol>
    <symbol id="slack" viewBox="0 0 28 32">
      <title>slack</title>
      <path d="M15.262 13.594l1.206 3.606-3.738 1.25-1.206-3.606 3.738-1.25zM17.85 28.825c-9.625 2.887-13.787 0.65-16.675-8.975s-0.65-13.787 8.975-16.675c9.625-2.888 13.787-0.65 16.675 8.975s0.65 13.787-8.975 16.675zM22.887 16.563c-0.244-0.762-1.075-1.162-1.837-0.919l-1.813 0.606-1.206-3.606 1.813-0.606c0.762-0.244 1.163-1.075 0.919-1.838s-1.075-1.162-1.837-0.919l-1.813 0.606-0.625-1.881c-0.244-0.763-1.075-1.162-1.838-0.919s-1.162 1.075-0.919 1.837l0.625 1.881-3.737 1.256-0.625-1.881c-0.244-0.762-1.075-1.162-1.838-0.919s-1.162 1.075-0.919 1.838l0.625 1.881-1.813 0.606c-0.763 0.244-1.163 1.075-0.919 1.838 0.2 0.581 0.763 0.962 1.344 0.988 0.269 0.038 0.481-0.063 2.306-0.669l1.206 3.606-1.813 0.606c-0.763 0.244-1.162 1.075-0.919 1.837 0.2 0.581 0.763 0.962 1.344 0.988 0.269 0.038 0.481-0.063 2.306-0.669l0.625 1.881c0.231 0.675 0.988 1.163 1.838 0.919 0.762-0.244 1.162-1.075 0.919-1.837l-0.625-1.881 3.738-1.256 0.625 1.881c0.231 0.675 0.988 1.163 1.837 0.919 0.762-0.244 1.163-1.075 0.919-1.837l-0.625-1.881 1.813-0.606c0.762-0.262 1.163-1.094 0.919-1.85z"></path>
    </symbol>
    <symbol id="slack-hash" viewBox="0 0 28 32">
      <title>slack-hash</title>
      <path d="M27.887 16.9c-0.387-1.188-1.681-1.819-2.875-1.431l-2.837 0.944-1.894-5.625 2.837-0.944c1.194-0.387 1.819-1.675 1.438-2.869-0.387-1.188-1.681-1.819-2.875-1.431l-2.837 0.944-0.981-2.938c-0.387-1.188-1.681-1.819-2.875-1.431s-1.819 1.675-1.438 2.869l0.981 2.938-5.838 1.95-0.981-2.938c-0.388-1.188-1.681-1.819-2.875-1.431s-1.819 1.675-1.438 2.869l0.981 2.938-2.831 0.938c-1.194 0.387-1.819 1.675-1.438 2.869 0.313 0.906 1.194 1.5 2.1 1.537 0.425 0.063 0.75-0.1 3.606-1.050l1.894 5.625-2.837 0.944c-1.188 0.387-1.819 1.681-1.438 2.869 0.313 0.906 1.194 1.5 2.1 1.538 0.425 0.063 0.75-0.1 3.606-1.050l0.981 2.938c0.369 1.056 1.544 1.813 2.875 1.431 1.194-0.387 1.819-1.675 1.438-2.869l-0.981-2.938 5.85-1.956 0.981 2.938c0.369 1.056 1.544 1.813 2.875 1.431 1.194-0.387 1.819-1.675 1.438-2.869l-0.981-2.938 2.837-0.944c1.188-0.375 1.819-1.669 1.431-2.856zM12.006 19.85l-1.894-5.637 5.844-1.956 1.894 5.637-5.844 1.956z"></path>
    </symbol>
    <symbol id="stack-overflow" viewBox="0 0 24 32">
      <title>stack-overflow</title>
      <path d="M18.356 18.75l-11.325-5.281 1.044-2.281 11.331 5.294-1.050 2.269zM21.356 14l-9.594-8.019-1.594 1.925 9.594 8.019 1.594-1.925zM23.831 12.019l-7.456-10.019-2 1.5 7.456 10.019 2-1.5zM18.169 19.438l-12.231-2.581-0.513 2.456 12.231 2.563 0.512-2.438zM20.144 27.5h-17.475v-7.5h-2.5v10h22.469v-10h-2.5v7.5zM17.656 22.5h-12.5v2.481h12.5v-2.481z"></path>
    </symbol>
    <symbol id="steam" viewBox="0 0 31 32">
      <title>steam</title>
      <path d="M31 16c0 8.563-6.95 15.5-15.525 15.5-7.112 0-13.1-4.769-14.938-11.275l5.95 2.456c0.4 2.006 2.181 3.525 4.306 3.525 2.45 0 4.494-2.025 4.387-4.594l5.281-3.762c3.256 0.081 5.988-2.556 5.988-5.844 0-3.225-2.625-5.844-5.856-5.844s-5.856 2.625-5.856 5.844v0.075l-3.7 5.356c-0.969-0.056-1.919 0.212-2.719 0.756l-8.319-3.438c0.637-7.981 7.319-14.256 15.475-14.256 8.575 0 15.525 6.938 15.525 15.5zM9.731 24.019l-1.906-0.788c0.356 0.728 0.95 1.293 1.678 1.604l0.022 0.008c1.681 0.7 3.612-0.1 4.313-1.775 0.338-0.813 0.344-1.706 0.006-2.519s-0.969-1.45-1.781-1.788c-0.806-0.337-1.669-0.325-2.431-0.038l1.969 0.813c1.238 0.512 1.825 1.931 1.306 3.169-0.519 1.244-1.938 1.825-3.175 1.313zM20.594 15.9c-2.15 0-3.9-1.75-3.9-3.894s1.75-3.894 3.9-3.894 3.9 1.75 3.9 3.894-1.744 3.894-3.9 3.894zM20.6 14.925c1.619 0 2.931-1.313 2.931-2.925 0-1.619-1.313-2.925-2.931-2.925s-2.931 1.313-2.931 2.925c0.006 1.613 1.319 2.925 2.931 2.925z"></path>
    </symbol>
    <symbol id="steam-square" viewBox="0 0 28 32">
      <title>steam-square</title>
      <path d="M11.575 22.281c0.481-1.156-0.063-2.481-1.225-2.962l-1.844-0.762c0.713-0.269 1.519-0.281 2.275 0.031 0.762 0.319 1.35 0.913 1.669 1.669 0.313 0.762 0.313 1.6-0.006 2.356-0.656 1.569-2.463 2.313-4.037 1.656-0.725-0.3-1.275-0.85-1.588-1.512l1.781 0.738c1.162 0.488 2.494-0.056 2.975-1.212zM25 2h-22c-1.656 0-3 1.344-3 3v10.044l7.287 3.006c0.75-0.512 1.637-0.756 2.544-0.706l3.463-5.012v-0.069c0-3.013 2.456-5.469 5.475-5.469s5.475 2.456 5.475 5.469c0 3.075-2.556 5.544-5.6 5.469l-4.938 3.519c0.1 2.406-1.819 4.3-4.106 4.3-1.987 0-3.656-1.419-4.031-3.294l-5.569-2.306v7.050c0 1.656 1.344 3 3 3h22c1.656 0 3-1.344 3-3v-22c0-1.656-1.344-3-3-3zM18.769 15.906c-2.012 0-3.65-1.631-3.65-3.644s1.638-3.644 3.65-3.644 3.65 1.637 3.65 3.644-1.637 3.644-3.65 3.644zM18.775 14.994c1.512 0 2.744-1.225 2.744-2.737s-1.225-2.738-2.744-2.738c-1.512 0-2.744 1.225-2.744 2.738s1.231 2.738 2.744 2.738z"></path>
    </symbol>
    <symbol id="steam-symbol" viewBox="0 0 28 32">
      <title>steam-symbol</title>
      <path d="M24.719 11.094c0 2.113-1.719 3.813-3.813 3.813-2.113 0-3.813-1.706-3.813-3.813s1.706-3.813 3.813-3.813c2.094 0 3.813 1.7 3.813 3.813zM28 11.106c0 3.938-3.188 7.113-7.106 7.113l-6.831 4.988c-0.25 2.688-2.531 4.8-5.281 4.8-2.531 0-4.669-1.8-5.188-4.188l-3.594-1.444v-6.706l6.075 2.456c0.944-0.575 2.013-0.831 3.25-0.719l4.438-6.356c0.031-3.894 3.219-7.050 7.125-7.050 3.925 0 7.113 3.188 7.113 7.106zM12.688 22.688c0-2.169-1.738-3.906-3.906-3.906-0.281 0-0.563 0.031-0.844 0.094l1.625 0.656c1.594 0.637 2.375 2.438 1.731 4.031-0.637 1.594-2.45 2.375-4.044 1.719-0.638-0.25-1.281-0.519-1.919-0.762 0.656 1.231 1.95 2.075 3.45 2.075 2.169 0 3.906-1.738 3.906-3.906zM25.656 11.106c0-2.625-2.144-4.763-4.762-4.763-2.644 0-4.781 2.138-4.781 4.763 0 2.637 2.144 4.762 4.781 4.762 2.619 0.006 4.762-2.119 4.762-4.762z"></path>
    </symbol>
    <symbol id="tencent-weibo" viewBox="0 0 24 32">
      <title>tencent-weibo</title>
      <path d="M4.519 30.988c0.088 1.244-1.725 1.387-1.856 0.181-0.725-8.119 1.944-14.969 6.338-19.575-0.975-2.125 0.575-4.819 3.162-4.819 1.894 0 3.444 1.537 3.444 3.444 0 2.75-3.094 4.425-5.431 2.819-4.106 4.456-6.338 10.612-5.656 17.95zM12 0.006c-7.869 0-12.769 8.387-9.269 15.144 0.544 1.088 2.206 0.281 1.644-0.838-2.894-5.787 1.313-12.45 7.625-12.45 4.712 0 8.556 3.838 8.556 8.556 0 5.675-5.431 9.619-10.481 8.319-1.194-0.256-1.6 1.525-0.412 1.819 6.919 1.45 12.75-3.75 12.75-10.144 0-5.744-4.663-10.406-10.412-10.406z"></path>
    </symbol>
    <symbol id="tumblr" viewBox="0 0 20 32">
      <title>tumblr</title>
      <path d="M19.363 30.019c-0.85 0.906-3.125 1.981-6.088 1.981-7.55 0-9.188-5.55-9.188-8.788v-9h-2.969c-0.344 0-0.625-0.281-0.625-0.625v-4.25c0-0.45 0.281-0.85 0.706-1 3.875-1.362 5.094-4.75 5.269-7.319 0.050-0.688 0.406-1.019 1.006-1.019h4.431c0.344 0 0.625 0.281 0.625 0.625v7.2h5.188c0.344 0 0.625 0.275 0.625 0.619v5.106c0 0.344-0.281 0.625-0.625 0.625h-5.213v8.325c0 2.137 1.481 3.35 4.25 2.238 0.3-0.119 0.563-0.2 0.794-0.137 0.219 0.056 0.363 0.212 0.462 0.494l1.375 4.019c0.113 0.313 0.206 0.663-0.025 0.906z"></path>
    </symbol>
    <symbol id="tumblr-square" viewBox="0 0 28 32">
      <title>tumblr-square</title>
      <path d="M25 2h-22c-1.656 0-3 1.344-3 3v22c0 1.656 1.344 3 3 3h22c1.656 0 3-1.344 3-3v-22c0-1.656-1.344-3-3-3zM19.856 24.762c-0.531 0.569-1.95 1.238-3.806 1.238-4.719 0-5.744-3.469-5.744-5.494v-5.625h-1.856c-0.213 0-0.387-0.175-0.387-0.387v-2.656c0-0.281 0.175-0.531 0.444-0.625 2.425-0.856 3.181-2.969 3.294-4.575 0.031-0.431 0.256-0.638 0.625-0.638h2.769c0.213 0 0.387 0.175 0.387 0.388v4.5h3.244c0.212 0 0.387 0.175 0.387 0.387v3.194c0 0.213-0.175 0.387-0.387 0.387h-3.256v5.206c0 1.337 0.925 2.094 2.656 1.4 0.188-0.075 0.35-0.125 0.5-0.087 0.137 0.031 0.225 0.131 0.288 0.306l0.863 2.512c0.063 0.2 0.125 0.419-0.019 0.569z"></path>
    </symbol>
    <symbol id="twitter" viewBox="0 0 32 32">
      <title>twitter</title>
      <path d="M28.711 9.482c0.020 0.284 0.020 0.569 0.020 0.853 0 8.67-6.599 18.66-18.66 18.66-3.716 0-7.168-1.076-10.071-2.944 0.528 0.061 1.036 0.081 1.584 0.081 3.066 0 5.888-1.035 8.142-2.802-2.883-0.061-5.3-1.949-6.132-4.548 0.406 0.061 0.812 0.102 1.239 0.102 0.589 0 1.178-0.081 1.726-0.223-3.005-0.609-5.259-3.249-5.259-6.437v-0.081c0.873 0.487 1.888 0.792 2.964 0.832-1.766-1.178-2.924-3.188-2.924-5.462 0-1.218 0.325-2.335 0.893-3.31 3.228 3.98 8.081 6.579 13.523 6.863-0.101-0.487-0.162-0.995-0.162-1.502 0-3.614 2.924-6.558 6.558-6.558 1.888 0 3.594 0.792 4.792 2.071 1.482-0.284 2.904-0.832 4.162-1.584-0.487 1.523-1.523 2.802-2.883 3.614 1.32-0.142 2.599-0.508 3.777-1.015-0.893 1.299-2.010 2.457-3.289 3.391z"></path>
    </symbol>
    <symbol id="twitter-square" viewBox="0 0 28 32">
      <title>twitter-square</title>
      <path d="M25 2h-22c-1.656 0-3 1.344-3 3v22c0 1.656 1.344 3 3 3h22c1.656 0 3-1.344 3-3v-22c0-1.656-1.344-3-3-3zM21.944 11.925c0.012 0.175 0.012 0.356 0.012 0.531 0 5.419-4.125 11.662-11.662 11.662-2.325 0-4.481-0.675-6.294-1.837 0.331 0.038 0.65 0.050 0.987 0.050 1.919 0 3.681-0.65 5.088-1.75-1.8-0.038-3.313-1.219-3.831-2.844 0.631 0.094 1.2 0.094 1.85-0.075-1.875-0.381-3.281-2.031-3.281-4.025v-0.050c0.544 0.306 1.181 0.494 1.85 0.519-1.107-0.744-1.825-1.991-1.825-3.406 0-0.002 0-0.005 0-0.007v0c0-0.762 0.2-1.463 0.556-2.069 2.019 2.487 5.050 4.112 8.45 4.287-0.581-2.781 1.5-5.037 4-5.037 1.181 0 2.244 0.494 2.994 1.294 0.925-0.175 1.813-0.519 2.6-0.988-0.306 0.95-0.95 1.75-1.8 2.256 0.825-0.088 1.625-0.319 2.363-0.637-0.556 0.819-1.256 1.544-2.056 2.125z"></path>
    </symbol>
    <symbol id="vimeo" viewBox="0 0 28 32">
      <title>vimeo</title>
      <path d="M25.2 2h-22.4c-1.544 0-2.8 1.256-2.8 2.8v22.4c0 1.544 1.256 2.8 2.8 2.8h22.4c1.544 0 2.8-1.256 2.8-2.8v-22.4c0-1.544-1.256-2.8-2.8-2.8zM23.563 11.3c-0.087 1.969-1.462 4.669-4.125 8.088-2.75 3.575-5.081 5.363-6.981 5.363-1.181 0-2.175-1.087-2.994-3.269-1.594-5.831-2.275-9.25-3.588-9.25-0.15 0-0.681 0.319-1.588 0.95l-0.95-1.225c2.331-2.050 4.556-4.325 5.95-4.45 1.575-0.15 2.544 0.925 2.906 3.231 1.294 8.2 1.869 9.438 4.225 5.725 0.844-1.338 1.3-2.356 1.363-3.056 0.219-2.075-1.619-1.931-2.863-1.4 0.994-3.256 2.894-4.838 5.7-4.75 2.081 0.056 3.063 1.406 2.944 4.044z"></path>
    </symbol>
    <symbol id="vimeo-square" viewBox="0 0 28 32">
      <title>vimeo-square</title>
      <path d="M25 2h-22c-1.656 0-3 1.344-3 3v22c0 1.656 1.344 3 3 3h22c1.656 0 3-1.344 3-3v-22c0-1.656-1.344-3-3-3zM23.988 11.35c-0.087 1.944-1.45 4.612-4.081 7.994-2.719 3.531-5.019 5.3-6.9 5.3-1.169 0-2.15-1.075-2.956-3.225-1.575-5.769-2.244-9.15-3.544-9.15-0.15 0-0.675 0.313-1.569 0.944l-0.938-1.213c2.306-2.025 4.506-4.275 5.881-4.4 1.556-0.15 2.513 0.912 2.875 3.194 1.281 8.1 1.85 9.325 4.175 5.656 0.837-1.325 1.288-2.325 1.344-3.019 0.212-2.050-1.6-1.912-2.825-1.387 0.981-3.219 2.863-4.781 5.631-4.694 2.056 0.063 3.025 1.4 2.906 4z"></path>
    </symbol>
    <symbol id="vimeo-v" viewBox="0 0 28 32">
      <title>vimeo-v</title>
      <path d="M27.988 9.6c-0.125 2.725-2.025 6.456-5.713 11.194-3.806 4.95-7.025 7.425-9.662 7.425-1.631 0-3.013-1.506-4.144-4.519-2.2-8.075-3.138-12.806-4.956-12.806-0.212 0-0.944 0.444-2.2 1.319l-1.313-1.7c3.225-2.831 6.306-5.981 8.238-6.156 2.181-0.213 3.519 1.281 4.025 4.469 1.794 11.344 2.588 13.056 5.85 7.919 1.169-1.85 1.8-3.256 1.887-4.225 0.3-2.869-2.238-2.675-3.956-1.938 1.375-4.506 4.006-6.694 7.887-6.569 2.863 0.075 4.219 1.944 4.056 5.588z"></path>
    </symbol>
    <symbol id="weibo" viewBox="0 0 32 32">
      <title>weibo</title>
      <path d="M25.438 11.1c0.475-1.5-0.837-2.925-2.337-2.606-1.375 0.3-1.8-1.756-0.444-2.050 3.131-0.681 5.769 2.319 4.781 5.3-0.425 1.325-2.425 0.675-2-0.644zM13.425 27.919c-6.644 0-13.425-3.212-13.425-8.519 0-2.769 1.75-5.963 4.769-8.981 6.231-6.231 12.7-6.306 10.85-0.356-0.25 0.819 0.769 0.356 0.769 0.375 4.969-2.1 8.781-1.050 7.125 3.213-0.231 0.588 0.069 0.681 0.519 0.819 8.481 2.644 2.175 13.45-10.606 13.45zM22.406 18.775c-0.337-3.481-4.906-5.875-10.213-5.356-5.3 0.537-9.3 3.769-8.963 7.25s4.906 5.875 10.213 5.356c5.3-0.538 9.3-3.769 8.963-7.25zM21.744 2.194c-1.619 0.35-1.050 2.731 0.519 2.394 4.519-0.95 8.425 3.3 6.981 7.75-0.462 1.512 1.819 2.313 2.337 0.75 1.994-6.237-3.444-12.244-9.837-10.894zM16.837 21.631c-1.069 2.425-4.175 3.75-6.819 2.894-2.55-0.819-3.625-3.337-2.519-5.606 1.106-2.212 3.944-3.463 6.462-2.819 2.625 0.675 3.944 3.137 2.875 5.531zM11.444 19.756c-0.806-0.337-1.875 0.019-2.375 0.806-0.519 0.806-0.269 1.75 0.537 2.125 0.819 0.375 1.925 0.019 2.444-0.806 0.5-0.819 0.231-1.769-0.606-2.125zM13.481 18.919c-0.319-0.106-0.713 0.038-0.894 0.337-0.181 0.319-0.088 0.663 0.231 0.806 0.319 0.125 0.731-0.019 0.912-0.337 0.175-0.325 0.069-0.681-0.25-0.806z"></path>
    </symbol>
    <symbol id="weixin" viewBox="0 0 36 32">
      <title>weixin</title>
      <path d="M24.075 10.475c0.4 0 0.788 0.019 1.175 0.069-1.038-4.9-6.294-8.544-12.269-8.544-6.7 0-12.169 4.55-12.169 10.338 0 3.338 1.831 6.094 4.869 8.225l-1.206 3.663 4.25-2.131c1.525 0.3 2.738 0.606 4.262 0.606 0.387 0 0.756-0.019 1.144-0.050-0.25-0.806-0.387-1.663-0.387-2.55-0.006-5.306 4.556-9.625 10.331-9.625zM17.544 7.169c0.906 0 1.512 0.606 1.512 1.525 0 0.906-0.606 1.512-1.512 1.512-0.925 0-1.831-0.606-1.831-1.512 0.006-0.919 0.913-1.525 1.831-1.525zM9.019 10.206c-0.906 0-1.831-0.606-1.831-1.512 0-0.925 0.925-1.525 1.831-1.525 0.925 0 1.525 0.606 1.525 1.525 0 0.912-0.6 1.512-1.525 1.512zM35.188 19.962c0-4.869-4.869-8.831-10.337-8.831-5.794 0-10.338 3.963-10.338 8.831s4.55 8.831 10.338 8.831c1.206 0 2.431-0.319 3.663-0.619l3.337 1.831-0.925-3.038c2.45-1.837 4.262-4.269 4.262-7.006zM21.494 18.431c-0.606 0-1.206-0.606-1.206-1.225 0-0.606 0.606-1.206 1.206-1.206 0.925 0 1.525 0.606 1.525 1.206 0 0.625-0.606 1.225-1.525 1.225zM28.188 18.431c-0.606 0-1.206-0.606-1.206-1.225 0-0.606 0.606-1.206 1.206-1.206 0.906 0 1.525 0.606 1.525 1.206 0.006 0.625-0.619 1.225-1.525 1.225z"></path>
    </symbol>
    <symbol id="whatsapp" viewBox="0 0 28 32">
      <title>whatsapp</title>
      <path d="M23.806 6.069c-2.619-2.625-6.106-4.069-9.813-4.069-7.65 0-13.875 6.225-13.875 13.875 0 2.444 0.637 4.831 1.85 6.938l-1.969 7.188 7.356-1.931c2.025 1.106 4.306 1.688 6.631 1.688h0.006c7.644 0 14.006-6.225 14.006-13.875 0-3.706-1.575-7.188-4.194-9.813zM13.994 27.419c-2.075 0-4.106-0.556-5.875-1.606l-0.419-0.25-4.362 1.144 1.162-4.256-0.275-0.438c-1.156-1.837-1.763-3.956-1.763-6.137 0-6.356 5.175-11.531 11.538-11.531 3.081 0 5.975 1.2 8.15 3.381s3.512 5.075 3.506 8.156c0 6.362-5.306 11.537-11.662 11.537zM20.319 18.781c-0.344-0.175-2.050-1.012-2.369-1.125-0.319-0.119-0.55-0.175-0.781 0.175s-0.894 1.125-1.1 1.363c-0.2 0.231-0.406 0.262-0.75 0.087-2.037-1.019-3.375-1.819-4.719-4.125-0.356-0.613 0.356-0.569 1.019-1.894 0.113-0.231 0.056-0.431-0.031-0.606s-0.781-1.881-1.069-2.575c-0.281-0.675-0.569-0.581-0.781-0.594-0.2-0.012-0.431-0.012-0.662-0.012s-0.606 0.088-0.925 0.431c-0.319 0.35-1.213 1.188-1.213 2.894s1.244 3.356 1.412 3.587c0.175 0.231 2.444 3.731 5.925 5.238 2.2 0.95 3.063 1.031 4.162 0.869 0.669-0.1 2.050-0.837 2.337-1.65s0.288-1.506 0.2-1.65c-0.081-0.156-0.313-0.244-0.656-0.413z"></path>
    </symbol>
    <symbol id="whatsapp-square" viewBox="0 0 28 32">
      <title>whatsapp-square</title>
      <path d="M14 7.675c-4.544 0-8.238 3.694-8.244 8.238 0 1.556 0.438 3.075 1.263 4.381l0.194 0.313-0.831 3.038 3.119-0.819 0.3 0.181c1.262 0.75 2.713 1.15 4.194 1.15h0.006c4.538 0 8.331-3.694 8.331-8.238 0-2.2-0.95-4.269-2.506-5.825-1.563-1.563-3.625-2.419-5.825-2.419zM18.844 19.45c-0.206 0.581-1.194 1.106-1.669 1.175-0.788 0.119-1.4 0.056-2.969-0.619-2.481-1.075-4.106-3.575-4.231-3.738s-1.012-1.344-1.012-2.563 0.637-1.819 0.869-2.069c0.225-0.25 0.494-0.313 0.662-0.313 0.162 0 0.331 0 0.475 0.006 0.15 0.006 0.356-0.056 0.556 0.425 0.206 0.494 0.7 1.713 0.762 1.838s0.106 0.269 0.019 0.431c-0.475 0.95-0.981 0.912-0.725 1.35 0.956 1.644 1.912 2.213 3.369 2.944 0.25 0.125 0.394 0.106 0.537-0.063 0.144-0.163 0.619-0.725 0.781-0.969 0.163-0.25 0.331-0.206 0.556-0.125s1.444 0.681 1.694 0.806 0.413 0.188 0.475 0.288c0.056 0.119 0.056 0.619-0.15 1.194zM25 2h-22c-1.656 0-3 1.344-3 3v22c0 1.656 1.344 3 3 3h22c1.656 0 3-1.344 3-3v-22c0-1.656-1.344-3-3-3zM13.994 25.825c-1.662 0-3.294-0.419-4.737-1.206l-5.256 1.381 1.406-5.137c-0.869-1.5-1.325-3.206-1.325-4.956 0.006-5.463 4.45-9.906 9.913-9.906 2.65 0 5.137 1.031 7.012 2.906 1.869 1.875 2.994 4.363 2.994 7.012 0 5.463-4.544 9.906-10.006 9.906z"></path>
    </symbol>
    <symbol id="wordpress" viewBox="0 0 32 32">
      <title>wordpress</title>
      <path d="M3.856 10.588l6.344 17.375c-4.438-2.15-7.494-6.7-7.494-11.963 0-1.931 0.413-3.756 1.15-5.412zM24.975 15.331c0-1.644-0.587-2.781-1.094-3.669-0.675-1.094-1.306-2.025-1.306-3.119 0-1.225 0.925-2.362 2.231-2.362 0.056 0 0.113 0.006 0.175 0.013-2.369-2.169-5.519-3.494-8.981-3.494-4.644 0-8.731 2.381-11.113 5.994 0.313 0.012 0.606 0.019 0.856 0.019 1.388 0 3.544-0.169 3.544-0.169 0.719-0.044 0.8 1.012 0.088 1.094 0 0-0.719 0.081-1.519 0.125l4.844 14.4 2.912-8.725-2.069-5.675c-0.719-0.044-1.394-0.125-1.394-0.125-0.719-0.044-0.631-1.137 0.081-1.094 0 0 2.194 0.169 3.5 0.169 1.387 0 3.544-0.169 3.544-0.169 0.719-0.044 0.8 1.012 0.087 1.094 0 0-0.719 0.081-1.519 0.125l4.806 14.294 1.325-4.431c0.563-1.837 1-3.156 1-4.294zM16.231 17.163l-3.988 11.594c1.194 0.35 2.45 0.544 3.756 0.544 1.55 0 3.031-0.269 4.412-0.756-0.038-0.056-0.069-0.119-0.094-0.181l-4.088-11.2zM27.669 9.619c0.056 0.425 0.087 0.875 0.087 1.369 0 1.35-0.25 2.863-1.012 4.762l-4.063 11.744c3.956-2.306 6.613-6.587 6.613-11.494 0-2.313-0.587-4.487-1.625-6.381zM31.5 16c0 8.55-6.956 15.5-15.5 15.5-8.55 0-15.5-6.956-15.5-15.5 0-8.55 6.95-15.5 15.5-15.5 8.544 0 15.5 6.95 15.5 15.5zM30.788 16c0-8.156-6.637-14.787-14.788-14.787-8.156 0-14.787 6.631-14.787 14.787s6.638 14.788 14.787 14.788c8.156 0 14.788-6.631 14.788-14.788z"></path>
    </symbol>
    <symbol id="wordpress-simple" viewBox="0 0 32 32">
      <title>wordpress-simple</title>
      <path d="M16 0.5c-8.544 0-15.5 6.95-15.5 15.5 0 8.544 6.956 15.5 15.5 15.5s15.5-6.956 15.5-15.5c0-8.55-6.956-15.5-15.5-15.5zM2.063 16c0-2.019 0.431-3.938 1.206-5.669l6.65 18.212c-4.65-2.262-7.856-7.031-7.856-12.544zM16 29.938c-1.369 0-2.688-0.2-3.938-0.569l4.181-12.15 4.281 11.738c0.031 0.069 0.063 0.131 0.1 0.194-1.444 0.506-3 0.788-4.625 0.788zM17.919 9.469c0.837-0.044 1.594-0.131 1.594-0.131 0.75-0.088 0.663-1.194-0.087-1.15 0 0-2.256 0.175-3.713 0.175-1.369 0-3.669-0.175-3.669-0.175-0.75-0.044-0.838 1.106-0.088 1.15 0 0 0.713 0.088 1.463 0.131l2.169 5.95-3.050 9.144-5.075-15.094c0.837-0.044 1.594-0.131 1.594-0.131 0.75-0.088 0.662-1.194-0.088-1.15 0 0-2.256 0.175-3.713 0.175-0.263 0-0.569-0.006-0.9-0.019 2.494-3.781 6.775-6.281 11.644-6.281 3.625 0 6.931 1.388 9.412 3.656-0.063-0.006-0.119-0.013-0.181-0.013-1.369 0-2.337 1.194-2.337 2.475 0 1.15 0.663 2.119 1.369 3.269 0.531 0.925 1.15 2.119 1.15 3.844 0 1.194-0.456 2.575-1.063 4.506l-1.387 4.644-5.044-14.975zM23.006 28.044l4.256-12.306c0.794-1.988 1.063-3.575 1.063-4.994 0-0.512-0.031-0.988-0.094-1.431 1.087 1.988 1.706 4.263 1.706 6.688 0 5.144-2.788 9.631-6.931 12.044z"></path>
    </symbol>
    <symbol id="xbox" viewBox="0 0 32 32">
      <title>xbox</title>
      <path d="M23.119 19.887c2.769 3.394 4.044 6.175 3.4 7.419-0.494 0.944-3.544 2.788-5.788 3.494-1.85 0.581-4.275 0.831-6.275 0.637-2.388-0.231-4.806-1.087-6.881-2.438-1.744-1.137-2.138-1.606-2.138-2.538 0-1.869 2.056-5.144 5.575-8.881 2-2.119 4.781-4.606 5.087-4.537 0.587 0.131 5.269 4.694 7.019 6.844zM11.787 8.988c-1.856-1.681-3.631-3.369-5.4-3.963-0.95-0.319-1.019-0.3-1.794 0.506-1.825 1.9-3.344 4.981-3.769 7.65-0.338 2.138-0.381 2.737-0.262 3.781 0.35 3.156 1.081 5.337 2.531 7.556 0.594 0.913 0.756 1.081 0.581 0.619-0.263-0.688-0.019-2.344 0.594-4 0.894-2.438 3.369-7.056 7.519-12.15zM31.262 12.956c-1.056-5-4.219-8.144-4.662-8.144-0.456 0-1.512 0.406-2.25 0.869-1.456 0.906-2.563 1.963-4.019 3.3 2.65 3.331 6.387 8.713 7.681 12.644 0.425 1.294 0.606 2.569 0.462 3.269-0.106 0.531-0.106 0.531 0.087 0.288 0.381-0.481 1.244-1.956 1.587-2.719 0.462-1.012 0.938-2.512 1.163-3.669 0.269-1.406 0.244-4.425-0.050-5.838zM8.831 2.688c2.981-0.156 6.856 2.156 7.144 2.213 0.044 0.006 0.65-0.263 1.35-0.606 3.994-1.944 5.875-1.612 6.712-1.575-3.994-2.456-9.544-3.125-14.619-0.731-1.463 0.694-1.5 0.744-0.588 0.7z"></path>
    </symbol>
    <symbol id="youku" viewBox="0 0 32 32">
      <title>youku</title>
      <path d="M0.096 5.943c-0.163 0.261-0.118 0.643 0.131 1.14 0.349 0.601 0.859 1.46 1.535 2.58l1.009 1.685-1.048 2.286-0.095 0.545c-0.059 0.362 0.098 0.643 0.473 0.839 0.376 0.225 0.692 0.199 0.953-0.075l0.395-0.411 3.553-7.667 0.131-0.562c0.088-0.375-0.082-0.663-0.506-0.859-0.424-0.199-0.751-0.186-0.973 0.036-0.222 0.225-0.389 0.424-0.487 0.601-0.101 0.176-0.356 0.718-0.767 1.629l-0.617 1.362-0.731-1.309c-0.49-0.875-0.829-1.463-1.029-1.763-0.199-0.327-0.438-0.539-0.712-0.637-0.274-0.101-0.601-0.036-0.973 0.186l-0.242 0.395zM4.494 21.792c0.575-0.823 1.097-1.704 1.571-2.638s0.885-1.926 1.234-2.975l1.345 0.637c-0.199 0.699-0.424 1.316-0.676 1.851l-0.375 0.803-0.036 7.183h-1.27v-5.051c-0.075 0.124-0.18 0.3-0.32 0.526-0.137 0.225-0.255 0.389-0.356 0.487l-1.117-0.823zM6.737 8.993c0 0.996 0.327 1.851 0.973 2.563 0.646 0.709 1.433 1.064 2.357 1.064 0.898 0 1.678-0.356 2.338-1.064 0.663-0.712 0.989-1.564 0.989-2.563 0-0.996-0.33-1.851-0.989-2.563-0.663-0.712-1.44-1.064-2.338-1.064-0.921 0-1.708 0.356-2.357 1.064-0.65 0.712-0.973 1.567-0.973 2.563v0zM7.374 25.756c0.65-0.549 1.267-1.267 1.851-2.152 0.588-0.885 0.904-2.015 0.953-3.386h-2.171v-1.123h2.286v-2.805h1.27v2.805h4.039v1.123h-2.468v5.051c0 0.075 0.020 0.131 0.056 0.17 0.036 0.036 0.095 0.055 0.17 0.055h0.784c0.075 0 0.144-0.026 0.206-0.075s0.108-0.124 0.131-0.225c0.026-0.101 0.049-0.356 0.075-0.767s0.036-0.777 0.036-1.104l1.345 0.411v1.051c0 0.699-0.186 1.192-0.562 1.479s-0.65 0.431-0.823 0.431l-1.685-0.036c-0.274 0-0.519-0.118-0.731-0.356s-0.32-0.48-0.32-0.731l-0.036-5.352h-0.186c-0.049 1.597-0.431 2.948-1.14 4.059s-1.365 1.917-1.966 2.413l-1.113-0.937zM8.533 8.993c0-0.575 0.15-1.029 0.451-1.365s0.676-0.506 1.123-0.506c0.424 0 0.777 0.17 1.064 0.506s0.431 0.79 0.431 1.365c0 0.549-0.144 0.996-0.431 1.345s-0.656 0.526-1.104 0.526c-0.424 0-0.784-0.176-1.084-0.526s-0.451-0.797-0.451-1.345v0zM12.465 17.264l0.859-0.934 2.060 1.646-0.859 0.934-2.060-1.646zM13.588 9.966c0 0.676 0.219 1.283 0.656 1.835 0.438 0.549 1.202 0.823 2.302 0.823s1.871-0.261 2.318-0.784c0.451-0.526 0.676-1.146 0.676-1.871v-3.481c0-0.251-0.069-0.48-0.206-0.692s-0.356-0.32-0.656-0.32c-0.349 0-0.581 0.118-0.692 0.356s-0.17 0.47-0.17 0.692v3.144c0 0.3-0.082 0.624-0.245 0.973s-0.493 0.526-0.989 0.526c-0.5 0-0.829-0.163-0.989-0.487-0.163-0.327-0.245-0.65-0.245-0.973v-3.18c0-0.225-0.056-0.457-0.17-0.692-0.111-0.238-0.33-0.356-0.656-0.356-0.398 0-0.656 0.124-0.767 0.375s-0.17 0.473-0.17 0.676v1.531l0.003 1.904zM16.579 25.72c0 0.349 0.111 0.601 0.336 0.751s0.5 0.225 0.823 0.225h3.481c0.199 0 0.395-0.082 0.581-0.245s0.281-0.418 0.281-0.767v-6.439c0-0.176-0.020-0.313-0.055-0.411-0.036-0.101-0.144-0.15-0.32-0.15h-1.123v-1.009h1.495v-1.048h-5.499v1.048h1.721v1.009h-1.309l-0.206 0.055c-0.137 0.036-0.206 0.157-0.206 0.356v6.625zM17.852 25.42v-1.048h3.18v1.159c0 0.075-0.075 0.111-0.225 0.111h-2.73c-0.101 0-0.163-0.036-0.186-0.111l-0.039-0.111zM17.852 23.327v-0.823l0.601 0.451c0.15-0.15 0.33-0.382 0.545-0.692 0.212-0.313 0.33-0.839 0.356-1.59v-0.712h0.225v1.871c-0.026 0.199 0.033 0.389 0.17 0.562 0.137 0.176 0.343 0.274 0.617 0.3h0.676v0.637l-3.19-0.003zM17.852 22.018v-2.060h0.451v0.751c0 0.274-0.049 0.539-0.15 0.784-0.101 0.248-0.202 0.424-0.3 0.526v0zM19.348 18.687v-1.009h0.225v1.009h-0.225zM19.837 11.537c0 0.225 0.075 0.457 0.225 0.692 0.15 0.238 0.398 0.356 0.751 0.356 0.3 0 0.539-0.101 0.712-0.3 0.176-0.199 0.261-0.438 0.261-0.712v-1.721l1.104 1.029c0.738 0.689 1.215 1.126 1.44 1.329 0.199 0.176 0.444 0.268 0.731 0.281s0.532-0.069 0.731-0.245c0.176-0.176 0.274-0.376 0.3-0.601s-0.062-0.451-0.261-0.676l-2.021-1.91 0.751-0.767c0.5-0.513 0.836-0.878 1.009-1.104 0.199-0.225 0.3-0.438 0.3-0.637s-0.088-0.389-0.261-0.562c-0.15-0.15-0.349-0.251-0.601-0.3s-0.473 0.026-0.676 0.225c-0.225 0.176-0.705 0.643-1.44 1.404l-1.104 1.14v-1.832c0-0.274-0.088-0.513-0.261-0.712-0.176-0.199-0.411-0.3-0.712-0.3-0.349 0-0.601 0.118-0.751 0.356s-0.225 0.47-0.225 0.692v4.875h-0.003zM20.582 21.492v-1.535h0.451v1.76h-0.3c-0.049 0-0.088-0.020-0.111-0.055-0.026-0.039-0.039-0.095-0.039-0.17v0zM22.267 19.922l1.084 0.186c0.049-0.124 0.095-0.268 0.131-0.431s0.095-0.418 0.17-0.767h1.048v1.495h-2.211v1.009h5.463v-1.009h-2.135v-1.495h1.685v-1.048h-1.646v-1.46h-1.159v1.46h-0.859c0.049-0.199 0.082-0.395 0.095-0.581s0.007-0.343-0.020-0.47h-1.195c-0.049 0.699-0.108 1.277-0.17 1.74-0.062 0.467-0.157 0.921-0.281 1.371v0zM22.717 25.645c0 0.349 0.075 0.614 0.225 0.784 0.15 0.173 0.362 0.261 0.637 0.261h2.955c0.424 0 0.692-0.082 0.803-0.245s0.17-0.369 0.17-0.617v-3.781h-4.79v3.598zM23.951 25.384v-2.286h2.468v2.286l-0.036 0.131c-0.026 0.088-0.111 0.131-0.261 0.131h-1.832c-0.176 0-0.274-0.042-0.3-0.131l-0.039-0.131zM26.048 9.966c0 0.676 0.219 1.283 0.656 1.835 0.438 0.549 1.202 0.823 2.302 0.823 1.123 0 1.904-0.261 2.338-0.784 0.438-0.526 0.656-1.146 0.656-1.871v-3.481c0-0.251-0.069-0.48-0.206-0.692s-0.356-0.32-0.656-0.32c-0.349 0-0.581 0.118-0.692 0.356s-0.17 0.47-0.17 0.692v3.144c0 0.3-0.075 0.624-0.225 0.973s-0.473 0.526-0.973 0.526c-0.5 0-0.833-0.163-1.009-0.487-0.176-0.327-0.261-0.65-0.261-0.973v-3.18c0-0.225-0.049-0.457-0.15-0.692-0.101-0.238-0.327-0.356-0.676-0.356-0.375 0-0.624 0.124-0.751 0.375s-0.186 0.473-0.186 0.676v1.535l0.003 1.9z"></path>
    </symbol>
    <symbol id="youku-icon" viewBox="0 0 32 32">
      <title>youku-icon</title>
      <path d="M12.118 22.749c4.042-1.806 7.833-3.899 11.311-6.344 0.284-0.199 0.297-0.624 0.023-0.839-3.151-2.452-6.86-4.614-11.353-6.364-0.323-0.124-0.682 0.098-0.709 0.441-0.372 4.157-0.359 8.382 0 12.673 0.026 0.359 0.402 0.581 0.728 0.434z"></path>
      <path d="M16 0.013c-8.833 0-16 7.154-16 15.984s7.167 15.99 16 15.99c8.833 0 16-7.158 16-15.99s-7.161-15.984-16-15.984zM16 27.089c-6.129 0-11.095-4.963-11.095-11.086s4.967-11.086 11.095-11.086c6.129 0 11.102 4.957 11.102 11.079 0 6.126-4.973 11.092-11.102 11.092z"></path>
    </symbol>
    <symbol id="youtube" viewBox="0 0 36 32">
      <title>youtube</title>
      <path d="M34.353 7.755c-0.393-1.478-1.549-2.642-3.018-3.037-2.662-0.718-13.336-0.718-13.336-0.718s-10.674 0-13.336 0.718c-1.469 0.395-2.625 1.559-3.018 3.037-0.713 2.679-0.713 8.269-0.713 8.269s0 5.59 0.713 8.269c0.393 1.478 1.549 2.594 3.018 2.989 2.662 0.718 13.336 0.718 13.336 0.718s10.674 0 13.336-0.718c1.469-0.395 2.625-1.511 3.018-2.989 0.713-2.679 0.713-8.269 0.713-8.269s0-5.59-0.713-8.269zM14.509 21.099v-10.15l8.921 5.075-8.921 5.075z"></path>
    </symbol>
    <symbol id="youtube-square" viewBox="0 0 28 32">
      <title>youtube-square</title>
      <path d="M11.675 12.631l5.95 3.381-5.95 3.381v-6.762zM28 5v22c0 1.656-1.344 3-3 3h-22c-1.656 0-3-1.344-3-3v-22c0-1.656 1.344-3 3-3h22c1.656 0 3 1.344 3 3zM25.375 16.019s0-3.725-0.475-5.512c-0.262-0.988-1.031-1.762-2.012-2.025-1.769-0.481-8.887-0.481-8.887-0.481s-7.119 0-8.887 0.481c-0.981 0.262-1.75 1.037-2.013 2.025-0.475 1.781-0.475 5.512-0.475 5.512s0 3.725 0.475 5.512c0.263 0.988 1.031 1.731 2.013 1.994 1.769 0.475 8.887 0.475 8.887 0.475s7.119 0 8.887-0.481c0.981-0.262 1.75-1.006 2.012-1.994 0.475-1.781 0.475-5.506 0.475-5.506z"></path>
    </symbol>
    <symbol id="zhihu" viewBox="0 0 40 32">
      <title>zhihu</title>
      <path d="M10.659 9.258v13.596l1.464 0.001 0.482 1.648 2.626-1.648h3.096v-13.597h-7.668zM16.768 21.379h-1.746l-1.744 1.094-0.318-1.092-0.744-0.003v-10.644h4.551v10.644zM9.364 15.479h-3.271c0.109-1.694 0.138-3.224 0.138-4.591h3.197s0.123-1.41-0.536-1.394h-5.531c0.218-0.82 0.492-1.666 0.82-2.542 0 0-1.504 0-2.017 1.348-0.212 0.556-0.826 2.696-1.919 4.883 0.368-0.040 1.586-0.074 2.303-1.388 0.132-0.368 0.157-0.416 0.321-0.908h1.804c0 0.656-0.075 4.18-0.105 4.59h-3.267c-0.734 0-0.973 1.476-0.973 1.476h4.099c-0.275 3.116-1.751 5.742-4.428 7.819 1.281 0.366 2.557-0.058 3.188-0.619 0 0 1.436-1.306 2.224-4.328l3.372 4.059s0.494-1.681-0.078-2.499c-0.474-0.558-1.754-2.066-2.299-2.613l-0.914 0.726c0.272-0.874 0.437-1.722 0.492-2.542h3.853s-0.006-1.476-0.474-1.476v0.001zM35.116 15.379c1.302-1.602 2.811-3.661 2.811-3.661s-1.166-0.925-1.711-0.254c-0.375 0.509-2.302 3.012-2.302 3.012l1.202 0.902zM25.735 11.686c-0.563-0.516-1.619 0.133-1.619 0.133s2.47 3.44 2.57 3.591l1.216-0.858s-1.604-2.351-2.166-2.866h-0.001zM40 16.147c-1.236 0-8.182 0.058-8.191 0.058v-6.313c0.301 0 0.776-0.025 1.428-0.075 2.555-0.151 4.383-0.25 5.486-0.301 0 0 0.764-1.699-0.037-2.090-0.192-0.074-1.448 0.286-1.448 0.286s-10.326 1.031-14.523 1.128c0.1 0.551 0.476 1.067 0.986 1.222 0.832 0.217 1.418 0.106 3.072 0.056 1.552-0.1 2.73-0.152 3.532-0.152v6.238h-8.342s0.176 1.394 1.594 1.428h6.746v4.433c0 0.873-0.699 1.374-1.53 1.32-0.88 0.007-1.63-0.072-2.606-0.113 0.124 0.248 0.396 0.899 1.207 1.365 0.617 0.301 1.011 0.411 1.626 0.411 1.848 0 2.854-1.080 2.806-2.832v-4.582h7.647c0.605 0 0.544-1.486 0.544-1.486l0.002-0.001z"></path>
    </symbol>
  </defs>
</svg>
